<?xml version="1.0" encoding="UTF-8" standalone="no"?>
<!-- Created with Inkscape (http://www.inkscape.org/) -->

<svg
   xmlns:dc="http://purl.org/dc/elements/1.1/"
   xmlns:cc="http://creativecommons.org/ns#"
   xmlns:rdf="http://www.w3.org/1999/02/22-rdf-syntax-ns#"
   xmlns:svg="http://www.w3.org/2000/svg"
   xmlns="http://www.w3.org/2000/svg"
   xmlns:sodipodi="http://sodipodi.sourceforge.net/DTD/sodipodi-0.dtd"
   xmlns:inkscape="http://www.inkscape.org/namespaces/inkscape"
   width="223.50513mm"
   height="223.41069mm"
   viewBox="0 0 223.50513 223.41069"
   version="1.1"
   id="svg1865"
   inkscape:version="0.91 r13725"
   sodipodi:docname="KWAIFONG.svg">
  <defs
     id="defs1859" />
  <sodipodi:namedview
     id="base"
     pagecolor="#ffffff"
     bordercolor="#666666"
     borderopacity="1.0"
     inkscape:pageopacity="0.0"
     inkscape:pageshadow="2"
     inkscape:zoom="0.70678283"
     inkscape:cx="432.75765"
     inkscape:cy="389.24955"
     inkscape:document-units="mm"
     inkscape:current-layer="layer1"
     showgrid="false"
     fit-margin-top="0"
     fit-margin-left="0"
     fit-margin-right="0"
     fit-margin-bottom="0"
     inkscape:window-width="1280"
     inkscape:window-height="755"
     inkscape:window-x="0"
     inkscape:window-y="1"
     inkscape:window-maximized="1"
     inkscape:lockguides="true"
     showguides="false" />
  <metadata
     id="metadata1862">
    <rdf:RDF>
      <cc:Work
         rdf:about="">
        <dc:format>image/svg+xml</dc:format>
        <dc:type
           rdf:resource="http://purl.org/dc/dcmitype/StillImage" />
        <dc:title></dc:title>
      </cc:Work>
    </rdf:RDF>
  </metadata>
  <g
     inkscape:label="Layer 1"
     inkscape:groupmode="layer"
     id="layer1"
     transform="translate(126.09163,-38.049381)">
    <path
       style="fill:#008000;fill-opacity:1;stroke:#000000;stroke-width:0.40000001;stroke-linecap:butt;stroke-linejoin:miter;stroke-miterlimit:4;stroke-dasharray:none;stroke-opacity:1"
       d="m 47.16578,92.504387 c 1.02071,1.316672 1.81019,2.35195 2.3182,3.718118 0.51573,1.386906 0.3882,3.456775 0.76275,4.911325 0.61619,2.39298 2.05119,4.29265 2.53576,6.47506 0.314,2.77049 0.92534,5.54115 0.94154,8.31164 -0.0293,1.98321 -1.68765,3.77212 -3.37602,5.73453 l -1.86706,-1.72909 c -0.64522,1.19117 -1.25727,2.08437 -2.4319,2.63033 -1.30146,1.65992 -3.71154,3.18788 -5.29425,4.78162 l -0.57877,0.0165 -0.86042,2.81224 c -0.30331,0.98712 -1.23564,1.511 -2.59777,1.1746 l -4.49999,-1.58802 c -0.67002,-0.27965 -1.35633,-0.62567 -1.76164,-0.98805 -1.777188,-1.76076 -3.46586,-3.42942 -3.46586,-3.42942 l -1.224259,-0.0414 c 0,0 2.384134,-2.3839 4.433799,-4.43357 l 4.98264,-5.02243 c 2.91167,2.60171 3.95556,-0.53988 4.88963,-2.72541 l 1.93011,-5.0891 z"
       id="path1401-2-8"
       inkscape:connector-curvature="0"
       sodipodi:nodetypes="ccccccccccccccccccccc" />
    <path
       style="fill:#b9b9b9;fill-opacity:1;stroke:#000000;stroke-width:0.40000001;stroke-linecap:butt;stroke-linejoin:miter;stroke-miterlimit:4;stroke-dasharray:none;stroke-opacity:1"
       d="m 47.487433,125.73434 c -0.987627,2.14992 -0.941374,5.57308 -1.383379,8.19434 -0.302188,1.79208 -1.120203,2.78396 -1.553392,4.40334 -0.700366,2.61815 -0.65699,6.38239 -1.071253,9.04958 -0.153009,0.98514 -0.44635,1.33854 -1.20768,1.89084 l -0.268716,-0.29249 c -0.101061,-0.64822 0.136718,-1.27311 0.03566,-1.92133 -0.05244,-0.33632 -0.382373,-0.56559 -0.470773,-0.91002 -0.07751,-0.302 -0.237741,-0.65234 -0.212391,-0.97358 0.02947,-0.3736 0.535736,-0.40401 -0.116787,-1.0971 l 0.465087,-0.7183 c 0.280008,-0.45363 0.01,-0.54439 0.0677,-0.84594 0.06751,-0.35261 0.227619,-0.6473 0.108522,-1.1653 -0.09983,-0.43422 0.534461,-0.25751 0.438732,-1.20045 -0.974868,-0.15598 -1.599118,-0.69838 -2.152841,-1.38079 -0.917157,0.39912 -2.284126,0.688 -3.382221,0.13177 -1.308153,-0.66262 -1.239092,-1.90136 -2.89078,-1.52497 -1.4162,0.32272 -2.26066,3.29438 -2.829284,5.56142 -0.424884,1.69396 -0.578906,2.66602 -1.335321,3.62665 0,0 -1.190432,1.5946 -2.100646,2.70475 h -5.16e-4 l -1.000455,-0.62012 c 0.316645,-0.65223 0.675669,-1.87778 1.305861,-3.21479 0.828945,-1.75868 1.663293,-3.53948 1.329635,-5.18677 -0.407189,-2.01031 -2.744698,-2.29453 -4.942851,-3.55068 -2.368693,-1.3536 -3.332932,-3.53515 -5.51439,-5.62447 2e-6,0 -1.169956,-1.34978 -1.169956,-1.34978 -0.516437,-0.68488 -1.205596,-1.2582 -2.025087,-1.74452 l 0.04555,-0.19793 9.920654,-9.75452 c 0.533585,-0.44185 1.066924,-0.73159 1.670701,-0.13229 l 2.95319,2.96976 -4.433915,4.43372 1.224259,0.0414 3.466026,3.42937 c 0.405312,0.36238 1.091872,0.70822 1.761889,0.98788 l 4.499981,1.58823 c 1.362125,0.3364 2.294105,-0.18749 2.597412,-1.17462 l 0.86029,-2.81249 0.579043,-0.0165 c 1.582712,-1.59374 3.992626,-3.1213 5.29409,-4.78122 1.174627,-0.54596 1.786756,-1.43934 2.431973,-2.63051 l 1.869542,1.73146 c -1.080995,1.25077 -2.175078,2.57911 -2.863163,4.07697 z"
       id="path1401-2"
       inkscape:connector-curvature="0"
       sodipodi:nodetypes="sccccccscccccccccsccccsscccccccccccccccccccs" />
    <path
       style="fill:#b9b9b9;stroke:#000000;stroke-width:0.4;stroke-linecap:butt;stroke-linejoin:miter;stroke-opacity:1;stroke-miterlimit:4;stroke-dasharray:none;fill-opacity:1"
       d="m 31.063543,142.93528 c 0.568622,-2.26704 1.413264,-5.23863 2.829461,-5.56135 1.65169,-0.37639 1.582578,0.86198 2.890731,1.5246 1.098095,0.55623 2.465158,0.26783 3.382315,-0.13129 0.553724,0.68241 1.177638,1.22443 2.152504,1.38041 0.09573,0.94294 -0.538626,0.76631 -0.438797,1.20052 0.119095,0.518 -0.04073,0.81272 -0.108243,1.16533 -0.05773,0.30155 0.212087,0.39254 -0.06792,0.84617 l -0.465181,0.71808 c 0.652521,0.69308 0.14657,0.72355 0.1171,1.09715 -0.02534,0.32124 0.134655,0.67179 0.212165,0.97379 0.0884,0.34443 0.41865,0.57366 0.471085,0.90998 0.101061,0.64822 -0.137131,1.27305 -0.03607,1.92127 l 0.269063,0.29246 c 0.761328,-0.5523 1.05472,-0.90573 1.20773,-1.89087 0.414264,-2.66719 0.370979,-6.43144 1.071343,-9.04959 0.433191,-1.61938 1.250814,-2.61132 1.553004,-4.40341 0.442003,-2.62125 0.396084,-6.0442 1.383705,-8.19411 1.762495,-3.8367 6.188786,-6.56154 6.236872,-9.81424 0.696324,-0.24413 1.879162,-0.0567 2.395648,0.19893 0.377192,0.18669 0.314608,0.65693 0.306443,1.07642 l -0.163814,2.25774 -0.94723,0.56121 1.789554,0.81907 0.421164,-0.10542 0.842325,0.43304 0.14056,0.44442 0.725019,-0.0233 0.690398,-0.50333 1.286743,-2.09393 1.450557,-0.85369 0.386025,-0.46819 c 0.111619,0.27861 -0.0964,1.03738 -0.07338,1.63504 0.02233,0.57954 0.253336,1.23045 0.156581,1.75442 -0.08547,0.46287 -0.323197,0.30045 -0.216009,0.96893 0.07323,0.4567 0.03059,0.44571 0.108006,0.85008 0.169069,0.88309 0.580075,1.37312 0.972032,1.83916 0.21327,0.25358 -0.166331,0.40637 0.01085,0.63407 0.128352,0.16496 0.408545,0.18662 0.698148,0.22893 0.181615,0.0265 0.368952,0.0566 0.558051,0.0583 l 0.07598,0.16132 c -0.560446,1.24705 0.06673,0.96901 0.01657,1.44638 -0.03248,0.30919 -0.310846,0.14827 -0.193787,0.43925 0.230558,0.57311 -0.087,1.10955 -0.338481,1.43816 -0.257141,0.33601 -0.647086,0.9914 -1.223698,1.002 -0.469424,0.009 -1.132292,-0.0587 -1.62574,-0.19378 -0.365427,-0.10008 -0.6624,-0.34169 -0.721921,-0.11782 -0.293079,1.10217 -2.720687,-0.12826 -3.447336,1.41903 -0.435223,0.92675 0.278173,1.29043 0.899171,1.44746 0.425947,0.1077 0.79121,0.0263 0.86093,0.30437 0.122502,0.4887 -1.007724,1.28176 -1.214397,1.90324 0.635822,0.6751 2.694413,1.20956 2.875277,1.85984 0.0791,0.2844 -0.312452,0.63367 -0.716235,0.70486 -0.50681,0.0894 -0.610264,-0.35984 -0.882116,0.16382 -0.177408,0.34173 0.32798,0.98857 0.960665,1.3255 0.8728,0.46479 2.002711,0.70993 2.0314,1.38906 0.01421,0.33642 -0.258784,0.39588 -0.596347,0.48008 -0.244401,0.061 -0.518634,0.19041 -0.761709,0.18242 -0.649248,-0.0206 -0.844434,-0.42142 -1.034563,-0.18036 -0.267812,0.33955 -0.455359,0.70543 -0.575676,1.09193 -0.03483,0.1119 1.176237,0.13638 1.355474,0.92087 0.136483,0.59735 -1.125627,1.28806 -0.588079,1.28726 1.22369,-0.002 1.532462,-1.81276 2.112534,-0.59893 0.384043,0.80363 -0.566092,0.79999 -0.982371,1.31878 -0.24692,0.30772 -0.05383,0.40708 -0.314193,0.67335 -0.376407,0.38493 -0.553937,0.16993 -0.559139,0.70693 -0.01067,1.10641 0.973971,0.31865 0.982369,1.47019 0.003,0.41846 -0.935834,-0.11521 -0.626316,0.46819 0.163634,0.30843 0.676579,0.13995 0.881599,0.53537 0.219213,0.4228 1.247217,-1.28523 1.667082,-1.07073 0.341685,0.17456 0.237471,0.47694 0.532267,0.72657 0.227973,0.19304 0.570124,-0.0142 0.728636,0.28628 0.17466,0.33109 0.246309,0.65571 0.327631,1.14516 0.169225,1.01849 -0.749186,0.30947 -0.837676,0.85369 -0.143179,0.88054 -0.408752,1.59671 -0.910021,2.49132 3.057472,3.98697 1.515906,5.87284 -1.101225,5.4591 l -4.817277,-0.89866 c -2.191927,-0.44601 -3.369066,-0.42101 -4.6669,-0.19327 -0.864156,0.15164 -1.381326,0.96486 -1.847432,2.07481 l -3.427698,-2.84272 c -1.450602,-1.19324 -4.387234,-2.42158 -5.124233,-2.84272 l -0.725022,0.0822 -0.198954,0.70176 -2.807581,0.0351 c 0.190731,-0.69576 -0.469725,-0.75998 -0.334346,-1.97765 0.09435,-0.84851 0.725369,-1.64028 0.556038,-2.43861 -0.101539,-0.47872 -0.294346,-0.883 -1.429885,-1.279 l -6.245098,-1.81952 -0.670242,0.28939 -0.355534,-0.72812 -0.496092,-0.17357 c 0.756414,-0.96064 0.910275,-1.93242 1.335159,-3.62638 z"
       id="path1401"
       inkscape:connector-curvature="0"
       sodipodi:nodetypes="sssccssccsssccssssccccccccccccccccscscccccscccccccccccccccccccsccccccccscccccscccccccccccccs" />
    <path
       style="opacity:1;fill:#b9b9b9;fill-rule:evenodd;stroke:#000000;stroke-width:0.40000001;stroke-linecap:butt;stroke-linejoin:miter;stroke-miterlimit:4;stroke-dasharray:none;stroke-opacity:1;fill-opacity:1"
       d="m 52.954754,183.99036 c 0.32598,4.01407 -2.13038,7.23924 -5.80533,5.50199 l -3.111704,2.76945 -1.396548,-1.56075 -4.20233,-7.41195 c -2.944423,-5.13559 -4.958664,-5.45418 -9.568923,-7.15356 -2.837696,-1.046 -5.758979,-2.4245 -7.479646,-4.36718 l 3.357417,-2.12907 0.386024,0.29249 1.053163,-0.74879 c 0.321813,-0.27548 -0.291002,-0.70402 -0.684194,-1.47846 -0.294523,-0.58013 -0.371424,-1.44136 -0.357084,-2.10117 l 1.789554,-1.21698 -0.479557,-3.35741 c -0.110789,-1.06339 -0.171979,-1.41503 -0.0677,-2.46187 0.05252,-0.52717 0.280307,-0.8585 0.216008,-1.48466 -0.132693,-1.29225 -0.729165,-0.62893 -0.467156,-4.19251 0.104159,-1.41664 0.0088,-1.57049 1.490706,-3.6234 0.910214,-1.11015 2.100934,-2.7048 2.100934,-2.7048 l 0.496321,0.17371 0.355698,0.72794 0.670034,-0.28952 6.245373,1.81984 c 1.135538,0.39599 1.328065,0.80025 1.4296,1.27897 0.169327,0.79833 -0.461893,1.59005 -0.556235,2.43856 -0.135387,1.21767 0.525393,1.28178 0.334665,1.97754 -0.161784,0.40016 -0.251079,1.23119 0.08123,1.63401 0.617363,0.74834 0.598136,1.22984 1.546159,1.73892 l 7.04143,3.576 c -0.858824,1.7762 -1.618329,3.25423 -0.690396,5.62602 l 1.549258,4.12998 c 0.534495,1.6566 -0.02733,3.23552 0.268718,4.20181 0.528262,1.72424 1.733672,2.18263 3.720187,2.00246 -0.144862,0.84954 -0.06573,2.12691 0.260448,2.94142 0.437568,1.09271 0.389623,2.22027 0.473874,3.45095"
       id="path2424-2"
       inkscape:connector-curvature="0"
       sodipodi:nodetypes="cccccscccccccccccccccccsscccccccccc" />
    <path
       style="fill:#b9b9b9;stroke:#000000;stroke-width:0.40000001;stroke-linecap:butt;stroke-linejoin:miter;stroke-miterlimit:4;stroke-dasharray:none;stroke-opacity:1;fill-opacity:1"
       d="m 70.115469,132.23434 c -0.09451,1.74265 -0.379029,2.68744 -0.472329,4.54598 -0.05555,1.10673 0.56823,1.30747 0.703839,2.46652 0.418891,3.58027 1.021371,8.23239 1.943032,11.30938 0.499229,1.66667 -0.68411,4.91309 -0.158131,5.88595 1.43629,2.65658 2.6368,0.76865 4.733052,1.3131 0.920797,0.23916 1.469929,1.21325 2.323877,1.34255 0.862881,0.13065 1.490531,-1.05533 1.960092,-0.82011 0.551889,0.27647 -1.159881,2.2302 -0.834059,3.15899 0.496249,1.41459 1.676688,-0.14475 1.492938,2.4815 -0.08946,1.27853 2.845069,1.56131 3.5326,2.91507 2.124361,4.18289 1.908831,8.6821 1.411279,12.30622 -0.164248,1.19638 0.914782,0.88405 0.874882,1.93993 -0.04731,1.25294 -1.090721,1.14762 -0.579292,1.79007 1.088073,1.36684 2.356742,1.23617 3.57342,1.65313 2.674562,0.91657 2.997751,1.75907 2.997751,1.75907 -4.743641,2.15121 -7.726231,2.67287 -11.73778,2.03605 -2.629709,-0.41746 -2.237721,-3.97406 -5.065839,-4.17804 -3.160242,-0.22793 -5.092771,4.85605 -7.88634,4.76095 -3.496111,-0.11907 -4.715926,-3.26144 -8.092016,-4.45967 -1.53922,-0.54629 -0.163,-2.62396 -1.23041,-2.73369 -2.62207,-0.26954 -6.651275,2.28307 -6.651275,2.28307 -0.08425,-1.23069 -0.03658,-2.3583 -0.474148,-3.45101 -0.326172,-0.81451 -0.405463,-2.09146 -0.260602,-2.941 -1.986512,0.18017 -3.191647,-0.27836 -3.719909,-2.0026 -0.296047,-0.96629 0.265708,-2.54516 -0.268787,-4.20176 l -1.549503,-4.12997 c -0.927931,-2.37179 -0.168371,-3.8502 0.690453,-5.6264 l -7.040989,-3.57561 c -0.948024,-0.50908 -0.928895,-0.99077 -1.546257,-1.73912 -0.33231,-0.40282 -0.243154,-1.23397 -0.08127,-1.63412 l 2.807615,-0.0351 0.198874,-0.7019 0.7253,-0.0819 c 0.737,0.42114 3.673299,1.64947 5.123902,2.84271 l 3.42763,2.84272 c 0.466104,-1.10995 0.983599,-1.92304 1.847753,-2.07468 1.297832,-0.22774 2.474787,-0.25285 4.666714,0.19317 l 4.817362,0.89848 c 2.61713,0.41374 4.158898,-1.47213 1.101423,-5.4591 0.50127,-0.89461 0.766792,-1.61086 0.909969,-2.4914 0.08849,-0.54422 1.00698,0.16505 0.837752,-0.85345 -0.08132,-0.48945 -0.153434,-0.81411 -0.328095,-1.14519 -0.158511,-0.30044 -0.500392,-0.0932 -0.728367,-0.28624 -0.294796,-0.24963 -0.190805,-0.55212 -0.53249,-0.72668 -0.419866,-0.2145 -1.447458,1.49353 -1.666669,1.07073 -0.20502,-0.39542 -0.718433,-0.22689 -0.882066,-0.53532 -0.309517,-0.5834 0.629316,-0.0499 0.626316,-0.46835 -0.0084,-1.15154 -0.992567,-0.36365 -0.981897,-1.47006 0.0052,-0.537 0.182556,-0.32226 0.558963,-0.70719 0.260363,-0.26627 0.06721,-0.36518 0.314133,-0.6729 0.41628,-0.51879 1.366249,-0.51519 0.982206,-1.31882 -0.580071,-1.21383 -0.888661,0.59674 -2.11235,0.59874 -0.53755,7.2e-4 0.724301,-0.69001 0.58782,-1.28736 -0.179237,-0.78449 -1.390254,-0.80887 -1.355424,-0.92077 0.120316,-0.3865 0.308024,-0.7522 0.575835,-1.09174 0.19013,-0.24106 0.385308,0.15945 1.034556,0.18005 0.243077,0.008 0.517542,-0.12141 0.761942,-0.18241 0.337563,-0.0842 0.610265,-0.14367 0.596055,-0.48009 -0.02869,-0.67913 -1.158721,-0.92418 -2.03152,-1.38897 -0.632686,-0.33693 -1.13761,-0.98374 -0.960201,-1.32547 0.27185,-0.52366 0.375027,-0.0746 0.881838,-0.16402 0.403782,-0.0712 0.795341,-0.42038 0.716241,-0.70478 -0.180862,-0.65028 -2.239472,-1.18475 -2.875295,-1.85984 0.206672,-0.62148 1.337009,-1.41446 1.214507,-1.90316 -0.06972,-0.27809 -0.435198,-0.19679 -0.861145,-0.30449 -0.621,-0.15703 -1.334133,-0.52037 -0.898908,-1.44712 0.726644,-1.54729 3.154074,-0.31731 3.447151,-1.41948 0.05952,-0.22386 0.356776,0.0179 0.722203,0.11798 0.493449,0.1351 1.155957,0.2029 1.625379,0.1939 0.576612,-0.0106 0.966775,-0.66581 1.223915,-1.00182 0.251485,-0.32861 0.569226,-0.86519 0.338665,-1.4383 -0.117057,-0.29098 0.160976,-0.13034 0.193456,-0.43953 0.05228,-0.49754 -0.631176,-0.1742 0.06104,-1.61254 0.0846,-0.007 0.169352,-0.0216 0.25391,-0.0463 0.354771,-0.10368 0.51663,-0.48129 0.90092,-0.58899 0.19716,-0.0553 0.36045,0.17817 0.5565,0.1186 0.33225,-0.10095 0.49461,-0.27962 0.8273,-0.35358 0.31706,-0.0705 0.68561,0.18304 0.97842,0.14 0.1666,-0.0245 0.53731,-0.14196 0.68841,-0.15027 0.38966,-0.0214 0.30329,0.10292 1.08306,0.39209 -1.337371,4.80474 -0.474307,4.98289 -0.588887,7.09571 z"
       id="path1348"
       inkscape:connector-curvature="0"
       sodipodi:nodetypes="ccccsccccccsccccscccccscsccccsccccccscccssssssssssssssssssssssscssssssssscsssssscc" />
    <path
       style="fill:#b9b9b9;stroke:#000000;stroke-width:0.4;stroke-linecap:butt;stroke-linejoin:miter;stroke-opacity:1;stroke-miterlimit:4;stroke-dasharray:none;fill-opacity:1"
       d="m 49.484082,96.222424 c 0.515724,1.386907 0.388543,3.45687 0.76309,4.911426 0.616192,2.39298 2.050839,4.29246 2.535413,6.47487 l 2.613887,-1.78698 0.248047,-0.90176 1.389578,-0.0165 3.662826,-2.40141 1.275892,-0.88263 c 1.196499,-0.78601 1.134081,-2.294498 0.700215,-3.003952 -0.113912,-0.117676 -1.296046,-1.603518 -1.296046,-1.603518 l 0.562758,-0.504362 c 0.657109,-0.617331 0.898758,-0.534384 1.352889,-3.107303 0.34894,-1.976927 0.477475,-2.833296 -0.716235,-3.832842 l -4.474663,-4.017843 -2.891297,3.546038 c -2.135511,2.591962 -5.859389,3.578998 -8.044551,3.408241 1.020838,1.316836 1.810142,2.35224 2.318197,3.718525 z"
       id="path1321"
       inkscape:connector-curvature="0"
       sodipodi:nodetypes="ssccccccccccccccs" />
    <path
       style="fill:#b9b9b9;stroke:#000000;stroke-width:0.40000001;stroke-linecap:butt;stroke-linejoin:miter;stroke-miterlimit:4;stroke-dasharray:none;stroke-opacity:1;fill-opacity:1"
       d="m 61.972719,101.61985 c 1.253473,-0.82343 1.126534,-2.442356 0.636945,-3.10201 0.973016,-0.735621 1.630175,-1.482941 2.357525,-2.38234 l 1.844662,1.397971 4.739901,-5.520736 c 0.313262,0.314905 0.576495,0.69182 0.810564,1.202861 0.575271,1.27358 0.714018,2.756627 0.03721,4.886007 -0.508439,1.599579 -0.842698,3.105397 -2.154388,3.998207 l -6.728788,4.49688 -2.819542,-4.09441 z"
       id="path1276"
       inkscape:connector-curvature="0"
       sodipodi:nodetypes="ccccccccccc" />
    <path
       style="opacity:1;fill:#b9b9b9;fill-rule:evenodd;stroke:#000000;stroke-width:0.40000001;stroke-linecap:butt;stroke-linejoin:miter;stroke-miterlimit:4;stroke-dasharray:none;stroke-opacity:1;fill-opacity:1"
       d="m 70.80793,124.91747 c 0.33636,-1.20844 1.04693,-1.07994 1.386999,-1.63659 0.2795,-0.45755 -0.003,-0.90707 0.340029,-1.10226 1.18659,-0.67424 2.247972,0.33486 2.687691,-0.86972 0.218979,-0.59989 0.297881,-1.61061 0.817001,-2.45308 1.03383,-1.67777 0.398709,0.55581 3.687109,-3.75171 1.103247,-1.44515 3.040377,0.0405 3.564127,-1.5043 0.49813,-1.46927 -0.0433,-1.70564 -0.62477,-2.43964 -0.51504,-0.65011 0.0878,-0.76361 0.57464,-1.14825 0.46152,-0.36462 0.38483,-1.25229 0.71521,-1.72393 0.39254,-0.56038 1.13599,-0.24108 0.99683,-1.46089 -0.29271,-2.56586 -5.526228,-7.140027 -5.275128,-9.865547 0.106461,-1.1555 2.516048,0.10771 3.024108,-0.89762 0.41106,-0.81337 -2.657467,-1.88898 -2.229318,-2.76831 0.402408,-0.82648 1.192448,-0.0962 1.884638,-0.90537 0.50797,-0.59382 -1.645666,-1.79624 -1.13688,-2.51613 0.40182,-0.568543 0.921973,-0.790885 1.485679,-0.92567 -0.225554,-0.512307 -0.703114,-0.165157 -1.170326,-0.211657 -0.391744,-0.03896 -0.522237,-0.62581 -0.982644,-0.37932 -1.572601,0.84191 -0.261178,1.54737 -1.305282,1.82233 -0.497067,0.1309 -0.361664,1.21029 -0.807323,1.17899 -0.491839,-0.03457 -0.613222,0.08557 -0.95151,0.15667 -0.887686,0.18646 -0.748165,-1.40994 -1.956601,-0.82993 -0.8779,0.42137 -0.70979,1.54529 -2.05312,2.14116 l -1.116719,0.38878 c 0.575265,1.273582 0.713611,2.75679 0.03676,4.886179 -0.508441,1.599577 -0.842711,3.105175 -2.154401,3.997975 l -6.728679,4.497 -2.819316,-4.09444 -3.662418,2.40165 -1.3897,0.0165 -0.24816,0.90165 -2.613959,1.78675 c 0.313997,2.77049 0.925786,5.54098 0.94199,8.31147 0.696394,-0.2441 1.879456,-0.057 2.395943,0.19865 0.377193,0.18669 0.314552,0.65699 0.306387,1.07648 l -0.163777,2.25779 -0.947571,0.56152 1.789856,0.81889 0.421143,-0.10529 0.842285,0.43285 0.14038,0.44454 0.725302,-0.0234 0.690206,-0.50304 1.286824,-2.09401 1.450602,-0.85398 0.386046,-0.46794 c 0.111619,0.27861 -0.09652,1.03702 -0.0735,1.63468 0.02232,0.57954 0.253328,1.2305 0.156574,1.75447 -0.08547,0.46288 -0.322916,0.30066 -0.215729,0.96914 0.07323,0.4567 0.03045,0.44566 0.107866,0.85003 0.169068,0.88309 0.579976,1.37331 0.971933,1.83935 0.213271,0.25358 -0.166332,0.40639 0.01084,0.63409 0.128352,0.16496 0.408379,0.18648 0.697982,0.22878 0.311739,0.0455 0.640143,0.10214 0.965709,0.007 0.354648,-0.10409 0.516627,-0.48129 0.900913,-0.58899 0.19717,-0.0553 0.360459,0.17817 0.556508,0.1186 0.332242,-0.10095 0.494606,-0.27962 0.827293,-0.35358 0.317064,-0.0705 0.685611,0.18304 0.978422,0.14 0.166606,-0.0245 0.537308,-0.14196 0.688412,-0.15027 0.389664,-0.0214 0.303291,0.10292 1.083062,0.39209 0.05912,-0.0608 0.08103,-0.14034 0.103532,-0.22119 z"
       id="path2424-2-8"
       inkscape:connector-curvature="0"
       sodipodi:nodetypes="ccccccccccccsccccssssssccsccccccccsccccccccccccssssssssssssscc" />
    <path
       style="opacity:1;fill:#b9b9b9;fill-opacity:1;fill-rule:evenodd;stroke:#000000;stroke-width:0.40000001;stroke-linecap:butt;stroke-linejoin:miter;stroke-miterlimit:4;stroke-dasharray:none;stroke-opacity:1"
       d="m 56.286455,65.383173 0.02339,1.087951 0.526442,0.01169 c 0.19107,0.425042 0.47573,0.861783 0.85398,1.204937 l -0.0702,4.831439 c 4.13653,1.122136 7.59476,2.178095 11.11917,4.309417 -2.03864,0.275878 0.0345,0.861246 -0.76975,1.599727 -0.45141,0.41452 -1.07055,0.363768 -1.79458,0.592357 l -1.23253,1.414515 c 1.88374,1.691685 1.170427,4.284149 2.071503,6.935102 0.58487,1.665845 1.712708,2.353452 2.566866,3.032704 1.28448,1.021457 2.14211,1.416205 2.781631,2.812464 l 1.116721,-0.388784 c 1.343328,-0.595862 1.175215,-1.719787 2.053119,-2.141154 1.208435,-0.580012 1.068915,1.016388 1.9566,0.829934 0.338288,-0.07106 0.459672,-0.191242 0.95151,-0.156672 0.445659,0.03132 0.310257,-1.048092 0.807324,-1.178992 1.044103,-0.274958 -0.267319,-0.980419 1.305282,-1.822333 0.460407,-0.246485 0.5909,0.340366 0.982643,0.379317 0.467212,0.04645 0.944771,-0.300642 1.168461,0.223146 0.709264,-0.206784 1.49879,-0.268519 2.213624,-0.754942 0.87167,-0.593151 1.285679,-0.944152 2.62568,-3.115061 0.616691,-0.796819 -0.14062,-0.64828 -0.59944,-0.961181 -0.49114,-0.334939 -0.7196,-1.1127 -1.052129,-1.429369 -1.341702,-1.277681 -0.100041,-2.211009 -0.947232,-2.485639 -0.923499,-0.29936 -1.247809,-0.0545 -1.673799,-0.68471 -0.30281,-0.447971 0.02349,-1.845162 -0.0723,-2.4014 -0.24203,-1.404451 -1.97404,-0.880661 -1.9265,-2.895431 0.0444,-1.88295 0.821851,-1.22097 1.47433,-2.581241 3.796652,-7.915209 9.538581,-4.74581 10.00197,-6.328299 0.32494,-1.10965 -0.39836,-1.5492 -0.244939,-2.686138 0.124011,-0.919073 0.518078,-1.871806 0.655249,-2.812749 0.175781,-1.205766 2.21017,3.00668 3.503658,1.249535 1.03696,-1.408639 -0.483069,-1.419483 -1.192168,-3.106786 -0.387548,-0.922172 0.960868,-1.394649 0.699701,-2.356962 -0.300299,-1.106493 -1.31174,0.383914 -2.138891,-2.876827 l -4.5191,4.227649 c -0.4001,0.40387 -0.792509,0.01371 -1.28416,0.06873 -0.22991,0.02573 -0.25281,0.619807 -0.498679,0.813387 -0.228401,0.179821 -0.681151,-0.04778 -0.86093,0.165365 -0.540951,0.641317 -0.229571,1.463722 -0.89607,1.772502 -1.11048,0.514467 -2.7814,-2.91444 -3.709331,-2.299602 -1.905109,1.262304 -1.487549,-0.215448 -2.137339,0.306958 -0.780042,0.627129 -0.84492,1.733934 -1.126551,1.202511 -0.300849,-0.567705 -0.0684,-0.994458 -0.091,-1.998328 -0.01971,-0.879672 -1.37155,-0.525827 -1.280539,-1.620573 0.0937,-1.127201 -0.937421,-1.780227 -0.68368,-3.133659 0.157599,-0.840617 1.2363,1.216277 2.47479,-0.783931 0.837729,-1.352976 -2.129731,0.456377 -1.9911,-1.305347 0.0657,-0.835253 -2.703021,-0.683597 -2.43912,-1.811259 0.20529,-0.877253 2.201939,0.73004 2.719729,-0.28732 0.414052,-0.813553 -0.59445,-1.121597 -0.29301,-2.177129 0.318359,-1.114787 1.739201,0.289164 2.76417,-1.946134 0.395711,-0.862973 -0.48157,-1.58665 -0.650599,-2.630332 -0.187381,-1.156979 0.972428,-2.666736 0.227891,-2.744017 l -3.040132,-0.100253 c 0,0 -3.306439,1.337567 -4.844161,2.104781 -2.75862,1.376367 -7.964874,4.790405 -7.964874,4.790405 -4.15739,2.779932 -4.21975,0.351659 -6.43165,1.009241 -1.10576,0.328733 -1.68924,1.259233 -2.8882,1.677417 -1.16414,0.406038 -2.13951,-0.464074 -4.19819,0.33848 -0.3849,1.565667 2.00387,1.536002 2.98793,2.298568 l -0.33021,1.488798 c 2.63092,-0.361656 5.96374,1.447915 4.0845,6.431649 l -2.121655,6.763535 z"
       id="path2424-2-6-7-9"
       inkscape:connector-curvature="0"
       sodipodi:nodetypes="ccccccscccsccsssssscccccccccccccccsccccccccccccccccccscccccccccccc" />
    <path
       style="opacity:1;fill:#b9b9b9;fill-rule:evenodd;stroke:#000000;stroke-width:0.4;stroke-linecap:butt;stroke-linejoin:miter;stroke-miterlimit:4;stroke-dasharray:none;stroke-opacity:1;fill-opacity:1"
       d="m 48.413945,88.097505 c -0.184589,-1.57611 0.16251,-3.753037 1.158582,-4.873608 1.765908,-1.98662 4.762319,-2.678391 4.676719,-5.261172 v -8.693528 l 0.330729,-2.598291 0.440927,-1.307493 1.265551,0.01976 0.02339,1.087951 0.526429,0.01169 c 0.191073,0.425042 0.475734,0.861783 0.853982,1.204937 l -0.07019,4.831439 c 4.136533,1.122136 7.594761,2.178095 11.119165,4.309417 -2.038638,0.275878 0.03446,0.861246 -0.769743,1.599727 -0.451413,0.41452 -1.07055,0.363768 -1.794583,0.592357 l -1.23253,1.414515 c 1.883739,1.691685 1.170432,4.284148 2.071505,6.935102 l -1.403807,0.251516 -0.520579,0.625866 -0.736999,-0.736999 0.274913,-0.339254 c -0.36585,-0.372937 -0.380747,-0.605493 -0.594518,-1.107113 -0.147019,-0.344986 -0.443338,0.01442 -1.290872,-0.814802 l -2.572599,-2.241717 -4.959225,6.088018 c -2.13551,2.591962 -5.859247,3.579152 -8.044326,3.408214 -0.730633,-1.009232 -1.698831,-1.929333 -2.837489,-2.630889 l -1.111531,-0.854771 c 1.716159,-1.394105 3.32296,-2.31466 5.197099,-0.920872 z"
       id="path2424-2-6-7"
       inkscape:connector-curvature="0"
       sodipodi:nodetypes="ccccccccccccscccccccsccccccc" />
    <path
       style="opacity:1;fill:#b9b9b9;fill-opacity:1;stroke:#000000;stroke-width:0.40000001;stroke-linecap:butt;stroke-linejoin:miter;stroke-miterlimit:4;stroke-dasharray:none;stroke-opacity:1"
       d="m 20.040222,91.411584 0.390673,1.35754 0.620118,-0.175183 2.678904,1.029396 12.2716,-0.11679 c 0.64395,0.05936 1.04237,0.492713 1.37046,0.949812 l 1.125,1.786972 0.0196,3.252515 -1.93012,2.093924 c -1.34141,-0.0624 -1.89876,0.23824 -2.21072,2.18798 l -0.40979,2.44482 c -0.26127,1.25953 -1.80939,2.22644 -3.13521,1.63762 l -2.0469,-1.01751 c -2.25388,-1.06455 -1.27899,-3.72029 -3.49798,-5.01881 l 1.50895,-3.790466 -4.09432,-1.637628 c -0.170426,0.389815 -0.959116,2.199868 -0.959116,2.199868 -0.722479,-0.489056 -0.198588,-1.548824 -0.283186,-2.366783 -0.02702,-0.261263 -0.185161,-0.521494 -0.238228,-0.753441 -0.06794,-0.296971 0.04951,-0.553164 -0.167434,-0.763262 -0.637439,-0.617328 -0.786749,-0.258762 -1.457275,-0.495578 l -0.926557,-0.570507 c 0.50723,-0.821096 1.371531,-2.234489 1.371531,-2.234489 z"
       id="path1034-9-1-2"
       inkscape:connector-curvature="0"
       sodipodi:nodetypes="ccccccccccccccccccccccc" />
    <path
       style="opacity:1;fill:#b9b9b9;fill-opacity:1;stroke:#000000;stroke-width:0.40000001;stroke-linecap:butt;stroke-linejoin:miter;stroke-miterlimit:4;stroke-dasharray:none;stroke-opacity:1"
       d="m 40.072344,99.776313 c -1.048954,1.945837 0.580986,2.464787 -0.163814,4.574397 l -0.971,2.81895 2.30477,0.85421 0.760277,-1e-5 5.163228,-15.519777 C 46.435108,91.494896 45.467118,90.57511 44.328458,89.873552 l -1.599426,2.371404 c -0.332645,0.490289 -0.338447,0.598943 -1.072804,0.598413 l -0.322461,1.025777 -0.951362,-0.422196 -0.752409,1.968873 -1.133268,0.827276 0.01974,3.252592 z"
       id="path1034-9-1"
       inkscape:connector-curvature="0"
       sodipodi:nodetypes="ccccccccccccccc" />
    <path
       style="opacity:1;fill:#b9b9b9;fill-opacity:1;stroke:#000000;stroke-width:0.40000001;stroke-linecap:butt;stroke-linejoin:miter;stroke-miterlimit:4;stroke-dasharray:none;stroke-opacity:1"
       d="m 20.182486,86.664038 1.61304,-0.107537 0.11581,1.348341 c 0.0214,0.921295 -0.63569,1.40975 -1.05882,2.167268 l -0.812795,1.339168 0.391124,1.357844 0.620017,-0.175475 2.678933,1.02946 12.271623,-0.116986 c 0.643947,0.05936 1.042227,0.493058 1.370317,0.950158 l 1.124995,1.786758 1.133266,-0.827204 0.752753,-1.96874 0.951283,0.421872 0.322609,-1.025728 c 0.734358,5.24e-4 0.739713,-0.107922 1.072358,-0.598211 l 1.599502,-2.371446 -1.173696,-0.760076 0.06204,-0.09513 -6.496247,-4.20491 c -1.46465,-0.795319 -3.307361,-0.645488 -5.386231,-0.543118 L 20.058649,85.29064 Z"
       id="path1034-9"
       inkscape:connector-curvature="0"
       sodipodi:nodetypes="ccccccccccccccccccccccc" />
    <path
       style="opacity:1;fill:#b9b9b9;fill-opacity:1;stroke:#000000;stroke-width:0.40000001;stroke-linecap:butt;stroke-linejoin:miter;stroke-miterlimit:4;stroke-dasharray:none;stroke-opacity:1"
       d="m 20.182478,86.664038 1.613046,-0.107537 0.115808,1.348341 c 0.02141,0.921295 -0.63569,1.40975 -1.05882,2.167268 l -2.183813,3.573513 0.926468,0.570769 c 0.670527,0.236815 0.819916,-0.121955 1.457355,0.495374 0.216942,0.210097 0.09946,0.466596 0.167402,0.763567 0.05307,0.231948 0.211048,0.492296 0.238069,0.753559 0.0846,0.817959 -0.439347,1.877278 0.283133,2.366332 l -0.467684,1.076248 c -0.471577,0.977878 -1.952455,0.896898 -2.655652,-0.292489 l 0.269235,-1.930114 c 0.08189,-0.713603 0.05807,-1.427557 -0.737423,-1.895494 l -1.7663,-1.099672 C 15.95826,94.196338 15.603633,94.009481 15.073305,93.892496 l -3.041674,-0.573091 0.444416,-0.830958 -1.5792,-0.86558 1.656754,-2.863904 0.826823,-2.811198 6.664376,-0.689015 z"
       id="path1034"
       inkscape:connector-curvature="0"
       sodipodi:nodetypes="ccccccssscccccccccccccc" />
    <path
       style="opacity:1;fill:#b9b9b9;fill-opacity:1;fill-rule:evenodd;stroke:#000000;stroke-width:0.40000001;stroke-linecap:butt;stroke-linejoin:miter;stroke-miterlimit:4;stroke-dasharray:none;stroke-opacity:1"
       d="m 18.628347,110.46777 c -0.869271,0.56278 -1.815,1.21098 -2.48462,1.83482 -0.61284,0.57094 0.092,1.25091 -1.18734,2.02669 l 1.04116,1.66117 -2.23439,1.4506 -0.52643,4.03595 c -1.38443,0.65938 -2.68613,1.0706 -4.3518101,0.93587 l -0.95926,2.29289 6.3522301,2.59704 c 0.437612,0.1878 0.851194,0.392 1.238179,0.61162 l 10.059769,-9.89116 c 0.533586,-0.44186 1.067172,-0.73165 1.670949,-0.13235 l 2.95311,2.96965 4.982636,-5.02219 c 2.911667,2.60171 3.955864,-0.5402 4.889931,-2.72573 l 1.930236,-5.0888 h -0.760396 l -2.304585,-0.85398 0.970968,-2.81932 c 0.744798,-2.10961 -0.885179,-2.62824 0.163777,-4.574074 l -1.555887,-0.280763 -1.93024,2.094017 0.818894,1.73136 c 0.21165,0.63419 0.21649,1.28493 -0.0351,1.97703 -0.7781,-0.36833 -1.945,-0.49831 -2.10788,1.35164 -0.14818,1.68285 -0.25494,3.52757 -2.39877,4.30921 l -4.86394,1.81157 -0.3557,-2.51469 -2.03492,0.0579 -1.48069,-0.68658 -2.30789,2.33271 c -1.1565,0.19245 -2.313,0.0339 -3.11855,-0.40533 l 0.320719,-1.34189 c -0.128783,0.0832 -0.260465,0.16856 -0.39416,0.25512 z"
       id="path2424-2-2-0-7-9-0"
       inkscape:connector-curvature="0"
       sodipodi:nodetypes="ssccccccccccccccccccccccsccccccccs" />
    <path
       style="fill:#b9b9b9;stroke:#000000;stroke-width:0.40000001;stroke-linecap:butt;stroke-linejoin:miter;stroke-miterlimit:4;stroke-dasharray:none;stroke-opacity:1;fill-opacity:1"
       d="m 10.896648,91.622679 1.579285,0.865683 -0.44454,0.830585 3.041584,0.573222 c 0.530328,0.116984 0.88518,0.304158 1.310222,0.561523 l 1.766459,1.099651 c 0.795492,0.467936 0.818889,1.181539 0.737,1.895141 l -0.269036,1.930236 c -0.259859,0.175283 -0.814569,0.486383 -1.918619,0.223061 -0.60582,-0.144493 -1.81508,0.325025 -2.88781,0.999849 -0.83019,0.52224 -1.46467,1.15992 -2.37172,1.32705 -1.8538799,0.3416 -3.8267799,-0.949 -5.4404499,-1.30795 0.059355,-0.633195 0.2345173,-1.26639 0.5254884,-1.899585 z"
       id="path970"
       inkscape:connector-curvature="0"
       sodipodi:nodetypes="ccccccccsssccc" />
    <path
       style="opacity:1;fill:#b9b9b9;fill-opacity:1;fill-rule:evenodd;stroke:#000000;stroke-width:0.40000001;stroke-linecap:butt;stroke-linejoin:miter;stroke-miterlimit:4;stroke-dasharray:none;stroke-opacity:1"
       d="m 20.576862,108.18238 -0.006,-3.64466 c 1.08509,-0.21753 1.51226,-1.80668 2.51034,-2.54937 0.52272,-0.38897 1.26993,-0.46086 2.204307,-0.16466 2.218984,1.29852 1.244107,3.95406 3.497989,5.01861 l 2.047221,1.01776 c 1.325819,0.58882 2.873908,-0.37825 3.135172,-1.63778 l 0.409445,-2.44496 c 0.311957,-1.94974 0.86958,-2.25 2.210997,-2.1876 l 0.818888,1.73136 c 0.211648,0.63419 0.216495,1.28493 -0.03509,1.97703 -0.778104,-0.36833 -1.944998,-0.49831 -2.107884,1.35164 -0.148173,1.68285 -0.254931,3.52757 -2.398763,4.30921 l -4.863947,1.81157 -0.355698,-2.51469 -2.034915,0.0579 -1.480691,-0.68658 -2.307894,2.33271 c -1.156501,0.19245 -2.313002,0.0339 -3.118551,-0.40533 l 0.321547,-1.33966 c 0.837115,-0.58482 1.502505,-1.11486 1.553527,-2.0325 z"
       id="path2424-2-2-0-7"
       inkscape:connector-curvature="0"
       sodipodi:nodetypes="ccsccccccccsccccccccc" />
    <path
       style="opacity:1;fill:#b9b9b9;fill-opacity:1;fill-rule:evenodd;stroke:#000000;stroke-width:0.40000001;stroke-linecap:butt;stroke-linejoin:miter;stroke-miterlimit:4;stroke-dasharray:none;stroke-opacity:1"
       d="m -7.967198,156.83558 0.6783,0.56249 0.70312,-0.13235 0.31434,0.67003 3.1516404,-1.04227 -0.1902604,-0.47151 c 0.9787104,-0.60933 0.7651804,-0.94073 1.1443204,-1.32364 0.20611,-0.20817 0.55251,-0.22666 0.68562,-0.45592 0.22645,-0.39006 -0.008,-0.76737 0.1158,-1.20485 0.14076,-0.49876 0.65218,-0.7333 0.92994,-1.23508 0.16129,-0.2914 -0.10266,-0.68003 0.22924,-1.12852 6.3319,-6.67602 11.1061096,-14.12884 19.0099046,-20.00427 2e-6,0 -1.17007,-1.34979 -1.17007,-1.34979 -0.776717,-1.03004 -1.94116,-1.80939 -3.357211,-2.4171 l -6.3522301,-2.59704 0.959268,-2.29289 c 1.6656741,0.13473 2.9673801,-0.27649 4.3518061,-0.93587 l 0.526428,-4.03595 2.234393,-1.4506 -1.041157,-1.66117 c 1.279336,-0.77578 0.574495,-1.45575 1.187332,-2.02669 0.669628,-0.62384 1.615353,-1.27204 2.484622,-1.83482 1.001606,-0.64845 1.890206,-1.22948 1.948909,-2.28539 l -0.0056,-3.64466 c 1.085093,-0.21753 1.512265,-1.80668 2.510347,-2.54937 0.522712,-0.38897 1.26993,-0.46086 2.204109,-0.16466 l 1.509094,-3.790286 -4.094441,-1.637776 -1.427205,3.275552 c -0.471578,0.97788 -1.952342,0.89693 -2.655537,-0.29246 -0.259859,0.175283 -0.814569,0.486383 -1.91862,0.223061 -0.605827,-0.144493 -1.815079,0.325025 -2.887817,0.999849 -0.830187,0.52224 -1.464671,1.15992 -2.37172,1.32705 -1.8538749,0.3416 -3.8267792,-0.949 -5.4404485,-1.30795 -0.2654018,1.04914 -0.3615859,2.06331 -0.9379899,3.25616 -2.624769,5.11172 -6.991479,5.63669 -11.665959,7.40008 -5.5327796,2.12803 -6.9929196,5.35879 -10.1399496,6.9851 -2.59741,1.34227 -4.35259,1.1787 -6.6983,1.90737 l 0.76843,2.70629 4.37648,-2.50578 6.91585,16.03622 1.0449,1.22939 1.9135796,1.1343 -1.6303896,10.08724 -2.55126,0.66146 c 0,0 0.0492,-0.39584 -0.1757,-0.79427 -0.16771,-0.29712 -0.65698,-0.3775 -0.76637,-0.73898 -0.14448,-0.47745 0.11581,-0.68202 -0.0909,-1.20251 -0.13073,-0.32911 -0.68635,-0.2643 -0.78858,-0.5886 -0.26815,-0.85063 0.18076,-1.6067 -0.19689,-1.96576 -0.36699,-0.34893 -2.007,1.01244 -2.22001,1.61644 -0.22643,0.64203 0.0979,1.62233 0.55293,2.78846 0.45021,1.15384 1.19347,2.03212 1.57768,3.13366 0.60542,1.73571 -0.18473,1.22687 0.45424,2.73575 l 1.423031,3.81689 z"
       id="path2424-2-2-0"
       inkscape:connector-curvature="0"
       sodipodi:nodetypes="ccccccssssccccccccccssccscccccssscccscccccccccccsccccccc" />
    <path
       style="opacity:1;fill:#b9b9b9;fill-rule:evenodd;stroke:#000000;stroke-width:0.4;stroke-linecap:butt;stroke-linejoin:miter;stroke-miterlimit:4;stroke-dasharray:none;stroke-opacity:1;fill-opacity:1"
       d="m 43.708284,192.56606 -4.22093,-1.89704 c 3.41477,12.5764 12.54653,15.6565 20.59151,19.30321 0,0 1.71798,-0.78007 2.34663,0.54261 0.62908,1.32358 -0.70952,2.02985 -0.70952,2.02985 l 7.6171,3.44113 c 1.44445,0.58873 2.58376,1.7961 2.88148,3.1564 0.1866,0.85257 0.20458,1.76499 -0.74362,2.62309 l -4.33152,3.67316 c 0,0 1.15795,1.35974 0.38602,2.13166 -1.05614,1.05614 -1.83399,-0.82683 -1.83399,-0.82683 l -6.51485,5.11132 0.46767,1.20303 -4.21421,3.27732 c -3.28412,2.50816 -2.72622,5.65094 -4.7408,7.19025 -2.45814,1.87823 -6.68657,1.68526 -8.67699,3.06235 l -5.52834,4.06332 c -1.54649,0.95592 -1.26859,2.18881 -0.894,3.78788 l -8.95346,6.54844 -18.5750998,-10.15649 c -0.5682,-0.37 0.15725,-1.03886 -0.0563,-1.56424 -0.20753,-0.51054 -0.59842,-0.90115 -0.416,-1.28365 0.3297,-0.6913 0.45753,-1.06625 1.17926,-1.62884 0.33862,-0.26396 0.47233,-1.11116 0.90795,-1.43092 0.5100598,-0.37439 1.3107798,-0.2269 1.4918998,-0.60668 l 0.0672,-1.47019 39.99032,-12.66176 -2.94039,-9.18756 -1.06866,-0.63458 -23.30039,7.18457 -7.6538,-24.00163 16.77262,-5.3387 -2.78743,-8.88266 -16.64032,5.38055 -11.3062898,-35.42937 -13.8198292,4.44108 -0.21239,-0.99218 0.44855,-0.23617 -1.55756,-4.17958 4.8729939,-1.47263 0.678307,0.56249 0.7031196,-0.13235 0.3143382,0.67003 3.1516373,-1.04227 -0.190254,-0.47151 c 0.9787075,-0.60933 0.7651765,-0.94073 1.1443148,-1.32364 0.206108,-0.20817 0.5525109,-0.22666 0.6856161,-0.45592 0.2264592,-0.39006 -0.00766,-0.76737 0.1158062,-1.20485 0.1407603,-0.49876 0.65218014,-0.7333 0.92993603,-1.23508 0.16129727,-0.2914 -0.10266173,-0.68003 0.22924668,-1.12852 6.33189539,-6.67602 11.10610619,-14.12884 19.00990219,-20.00427 2.18146,2.08931 3.145629,4.27093 5.514322,5.62453 2.198154,1.25615 4.535897,1.54055 4.943087,3.55087 0.333656,1.64728 -0.500685,3.42813 -1.32963,5.18681 -0.630194,1.33701 -0.989522,2.56215 -1.306167,3.21438 l 1.000916,0.6204 c -1.482026,2.05306 -1.386715,2.2065 -1.490873,3.62314 -0.262011,3.56358 0.334757,2.90058 0.467451,4.19283 0.0643,0.62616 -0.163497,0.95726 -0.216012,1.48442 -0.104285,1.04684 -0.04313,1.39883 0.06766,2.46222 l 0.479634,3.35745 -1.789853,1.21663 c -0.01433,0.65981 0.06274,1.52118 0.357262,2.1013 0.393192,0.77445 1.005707,1.20292 0.683895,1.47841 l -1.052857,0.7487 -0.386045,-0.29246 -3.357444,2.12911 c 1.720669,1.94268 4.64182,3.32135 7.479514,4.36735 4.61026,1.69938 6.624775,2.01811 9.569199,7.15371 l 4.202184,7.41173 1.394651,1.55241 z"
       id="path2424-2-2"
       inkscape:connector-curvature="0"
       sodipodi:nodetypes="ccccccccccccccsccccccccccccccccccccccccccccccssssccsssccssscccsccccscccc" />
    <path
       style="opacity:1;fill:#b9b9b9;fill-opacity:1;fill-rule:evenodd;stroke:#000000;stroke-width:0.40000001;stroke-linecap:butt;stroke-linejoin:miter;stroke-miterlimit:4;stroke-dasharray:none;stroke-opacity:1"
       d="m -40.353979,155.44887 -0.963766,-2.33526 c 0,0 2.540648,0.7484 3.478858,1.02526 1.837849,0.5137 3.030884,0.4651 4.223515,-0.24546 l 0.994254,-0.6904 6.478156,8.64547 c -0.303663,0.14384 0.02223,0.7613 -0.168461,0.9896 -0.228811,0.27394 -0.778589,0.21404 -0.954987,0.52968 -0.374544,0.67021 -0.482785,1.41498 -0.495564,2.08928 -0.05011,2.63232 -0.202354,4.51862 -1.277964,6.05803 -0.919295,1.31567 -2.047902,2.12929 -3.178104,2.98741 -0.249351,0.18932 -0.718161,0.16763 -0.910021,0.3359 -0.195612,0.17156 -0.115051,0.53497 -0.459922,0.92553 l -3.111437,3.23081 -4.005958,-3.6959 2.00298,-4.38733 3.779097,1.45469 c -0.423489,-0.70811 -0.716605,-1.47271 -0.644406,-2.12959 0.325771,-2.96268 0.840719,-5.19502 -0.07648,-6.84764 -0.868408,-1.56471 -2.964447,-2.1143 -5.598189,-2.74857 0.557723,-3.47829 1.70339,-3.23008 0.888399,-5.19151 z"
       id="path2424-9-3-1-7"
       inkscape:connector-curvature="0"
       sodipodi:nodetypes="ccccccccccccccccccscc" />
    <path
       style="opacity:1;fill:#b9b9b9;fill-opacity:1;fill-rule:evenodd;stroke:#000000;stroke-width:0.40000001;stroke-linecap:butt;stroke-linejoin:miter;stroke-miterlimit:4;stroke-dasharray:none;stroke-opacity:1"
       d="m -56.805249,156.53751 c 1.237801,0.0739 2.265075,0.0778 3.292306,0.39739 l 2.642214,0.86558 c 0.15208,-0.65121 0.05831,-1.18538 -0.14056,-1.70791 0.889082,-1.34532 0.09344,-1.42735 -0.526582,-2.14095 l 1.485697,-0.0233 0.374655,0.40928 1.684652,0.1173 0.04651,-0.32762 1.404048,0.11679 0.236678,-2.32338 0.114205,0.007 c 1.181539,0.0741 2.070512,0.35876 3.158463,0.67851 l 1.715167,0.50741 0.963749,2.33555 c 0.814989,1.96143 -0.300258,1.72356 -0.888331,5.19122 -1.57773,-0.36843 -3.350984,-0.78014 -5.173733,-1.47211 -0.48318,1.30888 -0.9603,1.68616 -1.51205,1.74976 -0.85858,0.0989 -1.74629,-1.35041 -2.69958,-1.10432 -0.81779,0.2111 -1.87092,0.85381 -2.59622,1.09192 -0.60003,0.19695 -0.5571,-0.0802 -0.99271,0.17983 -0.43305,0.25852 -0.40721,1.33429 -0.40721,1.33429 -0.55198,-0.11378 -1.62585,-0.003 -2.29082,0.10284 -1.0387,0.16542 -0.21771,-0.84913 -1.02991,-1.51826 l -2.02675,-0.85834 -1.12086,0.90589 c -0.72933,-0.21926 -1.27352,-0.43424 -1.97094,-0.46974 -0.48727,-0.0248 -0.65425,-0.36229 -0.93586,-0.28009 -0.39027,0.11395 0.39412,1.51602 -0.16381,1.51102 -0.50792,-0.004 -0.9318,-0.80274 -1.30483,-0.80874 l -0.65578,0.0357 -1.18029,-0.56017 c -0.56118,0.72389 -1.375,0.62163 -1.4304,1.51411 l -1.01337,-0.11937 c 0.339726,-2.49331 0.244844,-3.654 0.943453,-5.78539 z"
       id="path2424-9-3-1"
       inkscape:connector-curvature="0"
       sodipodi:nodetypes="cccccccccccccccccccccccccccccccccccc" />
    <path
       style="opacity:1;fill:#b9b9b9;fill-opacity:1;fill-rule:evenodd;stroke:#000000;stroke-width:0.40000001;stroke-linecap:butt;stroke-linejoin:miter;stroke-miterlimit:4;stroke-dasharray:none;stroke-opacity:1"
       d="m -67.326038,152.28396 c 1.64992,-0.15432 1.60999,0.85188 2.45044,0.74223 0.44978,-0.0587 0.74834,-1.02779 1.15961,-1.05503 0.40219,-0.0266 0.53929,0.23328 0.90878,0.19724 0.37884,-0.037 0.40491,-0.42652 0.89685,-0.40416 0.64974,0.0295 0.80032,0.87412 1.38915,0.96523 0.63871,0.0988 0.76167,0.72242 1.39742,0.78272 0.60809,0.0577 0.87693,-0.42278 1.78918,-0.28322 1.34348,-1.46314 2.54658,-1.83832 5.04819,-1.68708 l 5.980642,0.37667 -0.23673,2.32566 -1.403807,-0.11699 -0.04679,0.32756 -1.68457,-0.11698 -0.374348,-0.40945 -1.485697,0.0234 c 0.620019,0.7136 1.415507,0.79549 0.526429,2.14081 0.19887,0.52253 0.292459,1.05675 0.14038,1.70796 l -2.642026,-0.86569 c -1.027231,-0.31956 -2.054462,-0.32316 -3.292264,-0.39706 l -11.99443,-0.44669 c 0.387446,-1.26904 0.947385,-2.53809 1.473591,-3.80713 z"
       id="path2424-9-3"
       inkscape:connector-curvature="0"
       sodipodi:nodetypes="cssssssccccccccccccccc" />
    <path
       style="opacity:1;fill:#b9b9b9;fill-rule:evenodd;stroke:#000000;stroke-width:0.40000001;stroke-linecap:butt;stroke-linejoin:miter;stroke-miterlimit:4;stroke-dasharray:none;stroke-opacity:1;fill-opacity:1"
       d="m -21.606056,160.291 -4.01577,-8.48114 -0.61443,0.0238 -1.72445,-3.68556 -0.18913,-2.33836 -1.67742,-4.22868 0.47284,-0.4961 -0.65211,-1.77549 -2.334069,0.75038 h -0.83044 v 0.21084 l -3.475238,0.17828 -0.01654,-0.4222 -1.34824,0.0749 0.137462,2.38591 c 0.04289,0.55255 0.01129,0.95596 0.227891,1.3348 0.567891,-0.17228 1.5875,0.27282 1.5875,1.45211 0,0.59728 -0.530429,1.48104 -1.324983,1.48104 -0.964698,0 -1.242952,-0.5499 -1.554943,-1.10949 -0.363776,0.20794 -0.963629,0.29774 -1.306381,0.27234 -2.815359,-0.20841 -5.994931,0.92232 -8.354012,0.34519 -1.76099,-0.43082 -4.070554,-1.55416 -4.070554,-5.29373 l -0.06615,-3.49074 c 0,-2.18576 -0.731343,-4.31266 -1.270723,-6.24562 l -0.698666,-2.33784 c -2.203093,0.60978 -4.406077,3.24277 -6.406843,8.15196 l -3.844211,9.47539 c -0.626911,1.70314 -1.564969,3.78245 -2.370375,5.76097 1.649921,-0.15432 1.609986,0.85188 2.450437,0.74223 0.449779,-0.0587 0.748339,-1.02779 1.159614,-1.05503 0.402192,-0.0266 0.539284,0.23328 0.90878,0.19724 0.378843,-0.037 0.40491,-0.42652 0.896853,-0.40416 0.649734,0.0295 0.800314,0.87412 1.389143,0.96523 0.638713,0.0988 0.76167,0.72242 1.39742,0.78272 0.608093,0.0577 0.876933,-0.42278 1.789185,-0.28322 1.343477,-1.46314 2.546573,-1.83832 5.048192,-1.68708 l 6.094867,0.38605 c 1.181539,0.0741 2.070618,0.35875 3.15857,0.6785 l 5.194091,1.53249 c 1.837852,0.5137 3.030486,0.4649 4.22312,-0.24566 l 0.994365,-0.69021 6.478228,8.64575 4.53211,-1.26665 z"
       id="path2424-9"
       inkscape:connector-curvature="0"
       sodipodi:nodetypes="ccccccccccccccccssccccccccccsssssscccccccc" />
    <path
       style="opacity:1;fill:#b9b9b9;fill-opacity:1;fill-rule:evenodd;stroke:#000000;stroke-width:0.40000001;stroke-linecap:butt;stroke-linejoin:miter;stroke-miterlimit:4;stroke-dasharray:none;stroke-opacity:1"
       d="m -53.362673,130.87081 c 0.44168,-0.24982 0.7776,-0.005 1.19635,0.12931 0.46043,0.14769 1.00143,0.19114 1.43771,-0.0201 0.58715,-0.28423 0.59292,-1.42955 1.02554,-1.0384 0.73168,0.66155 0.084,3.96134 0.73246,4.6574 0.29852,0.32043 0.87773,0.35702 1.05335,0.72944 0.38531,0.81713 0.0561,2.42984 0.21077,4.35121 l 3.00739,1.35217 0.16544,-0.2647 0.62454,0.30192 0.47978,-0.98023 0.95955,0.4136 0.13235,-0.29779 1.52131,0.77355 c -0.078,-2.03068 1.00212,-2.31829 2.71397,-2.26665 l 0.09099,1.3897 0.137185,2.38609 c 0.04289,0.55255 0.01134,0.9562 0.227947,1.33504 0.567891,-0.17228 1.587864,0.27261 1.587864,1.4519 0,0.59728 -0.530366,1.48096 -1.324921,1.48096 -0.964697,0 -1.243453,-0.54974 -1.555444,-1.10933 -0.363775,0.20791 -0.963221,0.29765 -1.305973,0.27227 -2.81536,-0.20841 -5.99522,0.92236 -8.354301,0.34523 -1.760989,-0.43082 -4.070376,-1.55399 -4.070376,-5.29356 l -0.06618,-3.49079 c 0,-2.18576 -0.731335,-4.31262 -1.270714,-6.24558 z"
       id="path2424-9-29-9"
       inkscape:connector-curvature="0"
       sodipodi:nodetypes="csssssccccccccccccsscsscccc" />
    <path
       style="opacity:1;fill:#b9b9b9;fill-opacity:1;fill-rule:evenodd;stroke:#000000;stroke-width:0.40000001;stroke-linecap:butt;stroke-linejoin:miter;stroke-miterlimit:4;stroke-dasharray:none;stroke-opacity:1"
       d="m -57.007995,113.06101 c 2.139839,-0.0433 3.967644,1.12244 5.023983,3.08044 l 0.953947,-1.21595 h 2.420009 l 1.204576,1.95543 c -0.586994,0.29767 -1.061368,0.88552 -1.284158,1.51309 -0.290118,0.81722 -0.615997,1.47927 -1.168405,2.2965 l -1.727544,2.68304 c -0.152826,-0.0461 -0.321881,-0.0507 -0.445966,-0.13797 9e-5,-9e-5 -9e-5,-5.3e-4 0,-5.3e-4 -0.609375,-0.53769 -0.864549,-1.15935 -0.715203,-1.96681 l -3.982701,-2.14405 c -2.510795,-1.16479 -4.449054,-0.96359 -6.73762,-0.4956 -0.07695,-0.0263 -0.07695,-0.0263 -0.07695,-0.0263 l -0.467673,-2.00659 1.345655,-0.74001 c 1.448523,-0.59415 2.032469,-1.70866 3.030305,-2.16318 0.905343,-0.41239 1.79042,-0.61453 2.627746,-0.63148 z"
       id="path2424-9-29-1"
       inkscape:connector-curvature="0"
       sodipodi:nodetypes="sccccscccccccccccs" />
    <path
       style="opacity:1;fill:#b9b9b9;fill-rule:evenodd;stroke:#000000;stroke-width:0.40000001;stroke-linecap:butt;stroke-linejoin:miter;stroke-miterlimit:4;stroke-dasharray:none;stroke-opacity:1;fill-opacity:1"
       d="m -30.015883,139.00602 -0.756028,-0.33073 -0.66145,-2.95279 0.047,-12.40234 c -0.01312,-0.62226 -0.07433,-1.22226 -0.177078,-1.79315 l -5.041022,0.95701 c -5.661509,1.16963 -9.176998,1.40443 -13.143383,0.0884 -0.299651,0.64194 -1.188101,0.95434 -1.837626,0.80098 -0.152827,-0.0461 -0.322188,-0.0508 -0.446275,-0.13808 -1.818603,1.7856 -3.131217,3.43586 -2.673197,5.65978 l 0.69886,2.33837 0.643414,-0.36266 c 0.441678,-0.24982 0.777599,-0.005 1.196347,0.12931 0.460424,0.14769 1.001427,0.19114 1.43771,-0.0201 0.58715,-0.28423 0.592919,-1.42955 1.025538,-1.0384 0.731681,0.66155 0.08399,3.96134 0.732459,4.6574 0.29852,0.32043 0.877735,0.35702 1.053349,0.72944 0.385314,0.81713 0.05606,2.42984 0.210772,4.35121 l 3.007392,1.35217 0.165441,-0.2647 0.624539,0.30192 0.479776,-0.98023 0.959554,0.4136 0.132353,-0.29779 1.521304,0.77355 c -0.07801,-2.03068 1.002122,-2.31829 2.713968,-2.26665 l 0.09099,1.3897 1.348338,-0.0745 0.01654,0.42187 3.475061,-0.17822 v -0.21057 h 0.830588 l 2.334123,-0.75035 z"
       id="path2424-9-29"
       inkscape:connector-curvature="0"
       sodipodi:nodetypes="ccccccccccccsssssccccccccccccccccc" />
    <path
       style="opacity:1;fill:#b9b9b9;fill-opacity:1;fill-rule:evenodd;stroke:#000000;stroke-width:0.40000001;stroke-linecap:butt;stroke-linejoin:miter;stroke-miterlimit:4;stroke-dasharray:none;stroke-opacity:1"
       d="m -33.866801,116.51644 -1.48828,-2.07895 -1.36995,-4.15788 -5.57537,-0.18862 -0.21239,0.30696 c -0.725241,0.0426 -1.343753,-0.054 -1.908967,-0.21595 l 0.0085,2.68097 c 0,1.22003 -0.190759,2.34468 -0.178829,3.66009 -1.069015,-0.14307 -1.923434,-0.0358 -2.813616,0.35766 -0.586995,0.29766 -1.061312,0.88536 -1.284102,1.51293 -0.290119,0.81722 -0.616004,1.47946 -1.16841,2.29669 l -1.727264,2.68305 c 0.649515,0.15335 1.53813,-0.15893 1.837783,-0.80087 3.966388,1.31602 7.481906,1.08119 13.143415,-0.0884 l 5.040842,-0.95711 c -0.356162,-1.89996 -1.200205,-3.46527 -2.303362,-5.01057 z"
       id="path2424-9-5"
       inkscape:connector-curvature="0"
       sodipodi:nodetypes="cccccccccscccccc" />
    <path
       style="opacity:1;fill:#b9b9b9;fill-rule:evenodd;stroke:#000000;stroke-width:0.40000001;stroke-linecap:butt;stroke-linejoin:miter;stroke-miterlimit:4;stroke-dasharray:none;stroke-opacity:1;fill-opacity:1"
       d="m -47.880887,108.75771 c -1.416511,-0.48048 -3.5559,-0.63299 -5.309759,-0.62787 l -5.834841,3e-5 -0.850601,1.46503 -1.086749,-0.7798 -11.32386,6.34328 h -19.610689 v -2.22208 h -5.894732 l -0.340796,0.20959 0.01269,4.27578 3.506965,-0.13488 -0.03372,2.56278 23.39703,-0.10755 c 3.308993,-0.0414 5.658527,-0.67259 7.705732,-1.14008 l -0.467417,-2.00643 1.345596,-0.74009 c 1.448523,-0.59415 2.032578,-1.7087 3.030415,-2.16322 3.218992,-1.46628 6.182097,-0.27482 7.651791,2.44935 l 0.953767,-1.21605 h 2.420186 l 1.204135,1.95522 c 0.890184,-0.39343 1.744601,-0.50073 2.813616,-0.35766 -0.01192,-1.31541 0.17883,-2.44006 0.178829,-3.66009 l 0.0064,-2.66999 c -1.135176,-0.34457 -2.123236,-0.97711 -3.473938,-1.43527 z"
       id="path2424-9-2"
       inkscape:connector-curvature="0"
       sodipodi:nodetypes="sccccccccccccccccscccccccs" />
    <path
       style="fill:#b9b9b9;fill-opacity:1;stroke:#000000;stroke-width:0.40000001;stroke-linecap:butt;stroke-linejoin:miter;stroke-miterlimit:4;stroke-dasharray:none;stroke-opacity:1"
       d="m -118.3864,148.41102 v -1.46685 l 8.68311,-0.18546 c 0.33693,0.96459 0.34236,1.73373 1.0411,2.74061 0.2506,0.36112 1.68594,-0.37727 2.75789,0.54631 0.59635,0.51381 1.39438,-0.30186 2.06812,-0.65186 1.41458,-0.73476 1.12816,-1.3136 2.37905,-1.45282 0.76443,-0.0851 1.33199,-1.38748 2.310162,-1.51353 0.64558,-0.0832 0.5877,-0.65074 1.57204,-0.7109 0.35823,-0.0219 0.61541,-0.5893 0.92253,-0.69662 0.35114,-0.1227 0.69747,0.30253 0.98441,0.15378 0.51209,-0.26547 -0.47731,-0.35624 -1.29958,-0.76188 -0.4286,-0.21144 -0.55999,-0.71681 -0.94727,-0.93215 -0.41045,-0.22822 -0.85451,-0.22436 -0.84264,-0.52417 0.0419,-1.05935 0.56082,-0.3773 0.97295,-0.59023 0.29064,-0.15016 0.53099,-0.44737 0.80618,-0.67976 0.54849,-0.46319 1.34462,-0.35657 0.82084,-1.17191 -1.01708,-1.58323 -0.85453,0.14194 -1.94824,-0.10329 -0.56634,-0.12698 -1.4389,-0.18545 -1.955662,-0.66949 -2.88999,-2.70705 -0.47074,-1.86913 -0.75243,-2.73231 -0.0752,-0.23047 -0.33182,-0.32363 -0.47926,-0.54409 -0.12691,-0.18977 -0.13279,-0.51711 -0.33999,-0.60404 -0.31736,-0.13316 -0.74727,-0.0366 -1.04684,-0.18812 -0.51364,-0.25984 -1.33375,-0.77515 -1.8059,-1.1822 -0.40053,-0.34531 0.26932,-0.60364 -0.30279,-1.26687 -0.29216,-0.33869 0.14039,-0.71083 -0.0942,-1.11269 -0.93051,-1.59392 -3.41106,-0.87555 -2.39517,-3.08617 0.34922,-0.75991 1.01142,0.1527 2.0482,0.0751 0.72374,-0.0542 1.13263,-0.51301 1.99278,-0.53821 0.91913,-0.0269 0.4584,1.08493 2.22052,1.51381 1.157482,0.28173 2.032082,-1.25737 3.504982,-0.94274 1.49103,0.3185 0.75509,0.92325 1.46675,1.10016 0.51864,0.12894 0.96642,-0.18145 1.43953,0.0839 1.290549,0.72369 1.564963,-0.13579 2.257496,0.0168 0.916535,0.2019 1.649643,0.82471 2.105808,1.1242 0.596178,0.39141 0.274603,0.40386 0.385006,0.66926 0.189545,0.45567 0.665864,0.92085 0.925883,0.86683 1.066152,-0.2215 2.522572,-1.5912 3.634854,-2.42976 0.401857,-0.30296 1.07211,0.28388 1.866106,0.61559 0.456046,0.19053 0.976733,-0.0453 1.367115,-0.0405 0.37669,0.005 0.628772,0.25702 0.762164,0.0436 0.102495,-0.16395 -0.0414,-0.52277 0.08935,-0.90207 0.651045,-1.88862 -0.245829,-1.47887 -0.209735,-2.31266 0.02474,-0.57176 0.564298,-1.11586 0.726342,-1.56269 0.714571,-1.97042 -0.935408,-1.04538 -0.326845,-3.28017 0.0433,-0.15902 0.481309,-0.003 0.607827,-0.0838 0.279649,-0.17966 0.536713,-0.32824 0.769102,-0.44261 0.392697,-0.19325 0.756486,0.70114 1.091509,0.72218 1.052841,0.0661 0.948029,1.30828 1.454634,1.69273 0.944793,0.71699 2.767733,1.50995 3.810503,1.90488 0.503113,0.19054 0.207783,0.51529 0.619789,0.87261 0.962941,0.83513 1.791814,1.18094 2.678581,1.50889 0.162676,0.0602 0.0432,0.28556 0.143793,0.42173 0.754597,1.02151 1.48707,1.29294 1.745811,2.35871 0.50909,2.09697 -0.363278,4.27673 -0.230331,5.57386 0.211122,2.0598 0.855838,4.98474 1.271064,6.38897 0.487738,1.64945 0.707176,1.66541 2.103605,2.47979 l 3.844151,-9.47553 c 2.000767,-4.90919 4.20386,-7.54222 6.406952,-8.152 -0.457775,-2.22386 0.854793,-3.87448 2.673172,-5.65997 -0.609371,-0.53769 -0.864674,-1.15969 -0.715327,-1.96715 l -3.982456,-2.14381 c -4.789635,-2.22197 -7.48858,0.52988 -14.520648,0.61778 l -23.397029,0.10755 0.03372,-2.56278 -3.506965,0.13488 -0.0048,-4.29283 -1.722289,1.14335 c -3.604158,0.0258 -3.094638,0.96088 -4.481388,1.0697 -1.09532,0.086 -0.93822,-0.30085 -1.46657,-0.45113 l -0.76843,0.76843 -7.51737,4.00906 -3.05873,1.10019 c -2.09579,0.65856 -3.74401,1.07758 -5.22035,2.06757 -1.54275,1.03452 -2.79857,2.32062 -2.82619,3.14606 -0.0297,0.88862 -0.72944,1.69063 -0.43201,2.52595 0.11652,0.32723 0.89903,0.52215 1.11931,0.85731 0.561,0.85356 0.58585,1.6708 1.62729,2.60811 0.45887,0.41299 1.04595,0.0603 1.29656,0.7059 0.19489,0.50204 -0.234,0.75746 -0.18913,2.34714 0.0371,1.31608 0.58471,1.5173 0.27905,2.17816 -0.43077,0.93134 -1.72153,-0.0164 -1.56786,1.79111 0.0886,1.04177 0.70474,1.25801 1.15807,2.25774 0.43606,0.96164 -1.63576,1.91704 -1.1033,2.93781 0.25442,0.48775 0.46354,2.05982 0.46354,2.05982 l 1.15135,0.87643 0.0176,0.51728 1.19838,0.0202 0.97321,0.76688 z"
       id="path915-0"
       inkscape:connector-curvature="0"
       sodipodi:nodetypes="cccssssssssssssssssssssssssssssssssssssssssssssssssssssscccccccccccccccccccccccccccccccccc" />
    <path
       style="fill:#b9b9b9;stroke:#000000;stroke-width:0.40000001;stroke-linecap:butt;stroke-linejoin:miter;stroke-miterlimit:4;stroke-dasharray:none;stroke-opacity:1;fill-opacity:1"
       d="m -118.38643,148.41108 v -1.46685 l 8.68311,-0.18546 c 0.33693,0.96459 0.34236,1.73373 1.0411,2.74061 0.2506,0.36112 1.68594,-0.37727 2.75789,0.54631 0.59635,0.51381 1.39438,-0.30186 2.06812,-0.65186 1.41458,-0.73476 1.12816,-1.3136 2.37905,-1.45282 0.76443,-0.0851 1.33199,-1.38748 2.310159,-1.51353 0.645587,-0.0832 0.587707,-0.65074 1.57204,-0.7109 0.358229,-0.0219 0.615414,-0.5893 0.922534,-0.69662 0.351139,-0.1227 0.697464,0.30253 0.984407,0.15378 0.512092,-0.26547 -0.477307,-0.35624 -1.299576,-0.76188 -0.428603,-0.21144 -0.559993,-0.71681 -0.947269,-0.93215 -0.410449,-0.22822 -0.854517,-0.22436 -0.842643,-0.52417 0.04195,-1.05935 0.560816,-0.3773 0.972946,-0.59023 0.290642,-0.15016 0.530993,-0.44737 0.806179,-0.67976 0.548495,-0.46319 1.344627,-0.35657 0.820845,-1.17191 -1.017083,-1.58323 -0.854528,0.14194 -1.948242,-0.10329 -0.566338,-0.12698 -1.438901,-0.18545 -1.95566,-0.66949 -2.88999,-2.70705 -0.47074,-1.86913 -0.75243,-2.73231 -0.0752,-0.23047 -0.33182,-0.32363 -0.47926,-0.54409 -0.12691,-0.18977 -0.13279,-0.51711 -0.33999,-0.60404 -0.31736,-0.13316 -0.74727,-0.0366 -1.04684,-0.18812 -0.51364,-0.25984 -1.33375,-0.77515 -1.8059,-1.1822 -0.40053,-0.34531 0.26932,-0.60364 -0.30279,-1.26687 -0.29216,-0.33869 0.14039,-0.71083 -0.0942,-1.11269 -0.93051,-1.59392 -3.41106,-0.87555 -2.39517,-3.08617 0.34922,-0.75991 1.01142,0.1527 2.0482,0.0751 0.72374,-0.0542 1.13263,-0.51301 1.99278,-0.53821 0.91913,-0.0269 0.4584,1.08493 2.22052,1.51381 1.157482,0.28173 2.03208,-1.25737 3.504982,-0.94274 1.491025,0.3185 0.755088,0.92325 1.466748,1.10016 0.518642,0.12894 0.966419,-0.18145 1.43953,0.0839 1.290551,0.72369 1.564965,-0.13579 2.257497,0.0168 0.916535,0.2019 1.649645,0.82471 2.10581,1.1242 0.596177,0.39141 0.274602,0.40386 0.385004,0.66926 0.189547,0.45567 0.665864,0.92085 0.925883,0.86683 1.066153,-0.2215 2.522574,-1.5912 3.634854,-2.42976 0.401858,-0.30296 1.072111,0.28388 1.866107,0.61559 0.456046,0.19053 0.976732,-0.0453 1.367114,-0.0405 0.376692,0.005 0.628773,0.25702 0.762165,0.0436 0.102494,-0.16395 -0.0414,-0.52277 0.08935,-0.90207 0.651045,-1.88862 -0.24583,-1.47887 -0.209734,-2.31266 0.02475,-0.57176 0.564297,-1.11586 0.72634,-1.56269 0.714572,-1.97042 -0.935408,-1.04538 -0.326844,-3.28017 0.0433,-0.15902 0.481309,-0.003 0.607828,-0.0838 0.279648,-0.17966 0.536711,-0.32824 0.7691,-0.44261 0.392699,-0.19325 0.756486,0.70114 1.091511,0.72218 1.05284,0.0661 0.948028,1.30828 1.454632,1.69273 0.944795,0.71699 2.767733,1.50995 3.810503,1.90488 0.503113,0.19054 0.207784,0.51529 0.619791,0.87261 0.96294,0.83513 1.791812,1.18094 2.67858,1.50889 0.162676,0.0602 0.0432,0.28556 0.143792,0.42173 0.754598,1.02151 1.487069,1.29294 1.745811,2.35871 0.509091,2.09697 -0.363279,4.27673 -0.230329,5.57386 0.211121,2.0598 0.855836,4.98474 1.271063,6.38897 0.487738,1.64945 0.707176,1.66541 2.103621,2.47976 -1.008799,2.74062 -2.762685,6.45524 -3.711903,9.14821 -0.848918,2.40841 -0.718858,3.55296 -1.080048,6.20381 l 1.013378,0.11922 c 0.05537,-0.89249 0.869467,-0.79022 1.430653,-1.51411 l 1.180288,0.56034 0.655716,-0.0358 c 0.373029,0.006 0.796628,0.8046 1.30455,0.80905 0.557934,0.005 -0.226354,-1.39732 0.16392,-1.51127 0.281607,-0.0822 0.448353,0.25541 0.935624,0.2802 0.697419,0.0355 1.241987,0.25046 1.971318,0.46972 l 1.120677,-0.90608 2.026759,0.85839 c 0.812202,0.66913 -0.0089,1.68399 1.029799,1.51857 0.664964,-0.1059 1.739233,-0.21691 2.291213,-0.10313 0,0 -0.02598,-1.07548 0.407072,-1.33399 0.435614,-0.26004 0.392473,0.0167 0.992501,-0.18025 0.725299,-0.23811 1.77874,-0.88062 2.596525,-1.09172 0.953286,-0.24609 1.841019,1.20311 2.699588,1.10417 0.551754,-0.0636 1.028795,-0.44077 1.511975,-1.74965 4.862221,1.84584 9.371944,1.69754 10.772164,4.22048 0.917197,1.65262 0.402172,3.88498 0.07643,6.84766 -0.07222,0.65688 0.220824,1.42152 0.644309,2.12963 l -3.779306,-1.4545 -2.002914,4.38734 4.005826,3.69585 3.111669,-3.23089 c 0.344863,-0.39056 0.264284,-0.75388 0.459892,-0.92544 0.191851,-0.16827 0.660721,-0.14662 0.910065,-0.33594 1.130195,-0.85812 2.258824,-1.67184 3.178109,-2.98751 1.075619,-1.53941 1.227896,-3.42586 1.277991,-6.05818 0.01283,-0.6743 0.120827,-1.41895 0.495365,-2.08916 0.176393,-0.31564 0.726551,-0.25583 0.955345,-0.52977 0.190677,-0.2283 -0.135566,-0.84533 0.168087,-0.98917 l 4.532108,-1.26665 -0.295238,3.15208 17.4981602,55.00129 -6.6853802,7.9375 -0.82682,-0.54363 -3.922242,4.8736 -4.493268,0.0331 v -2.9564 h 0.918808 l 0.0331,-1.90427 -0.951881,-0.0336 0.01651,0.4346 -7.500318,0.36741 0.11679,4.66018 -6.631641,0.13385 0.10025,2.60604 -0.60099,0.0331 -0.01709,-1.78697 -0.58446,0.0331 v -0.83509 l -5.14491,0.30074 -6.214091,-4.17596 -0.734838,-5.24517 -1.269691,-0.76843 0.86868,5.84616 -26.827296,3.84112 -0.33074,2.81119 -0.75602,0.92139 h -9.44956 l -4.58266,-9.44955 -4.13412,-6.7324 5.3387,-15.23732 6.09471,-9.94564 -4.30775,-2.90784 -0.68471,0.63458 -1.002,-0.85213 -1.25316,1.35339 h -0.65112 l -1.48672,-2.67269 -2.63964,1.10226 0.61805,2.03811 -0.73484,0.0331 -0.81856,-2.4386 2.93988,-1.13586 0.11731,-2.8732 1.11879,-1.63712 0.55138,0.38448 0.76843,-1.00252 2.08825,-1.05214 1.06866,-0.98547 -4.34287,-6.08077 -18.043868,-2.6727 0.44907,-6.40168 0.52297,-0.54724 0.82372,-6.35104 -4.72478,-1.06299 0.89762,-7.70133 h -6.85074 l -0.37414,-2.1425 -0.65863,-0.56086 z"
       id="path915"
       inkscape:connector-curvature="0"
       sodipodi:nodetypes="cccssssssssssssssssssssssssssssssssssssssssssssssssssssscscccccssscccsssssscsscccccsssssscccccccccccccccccccccccccccccccccccccccccccccccccccccccccccccc" />
    <path
       style="fill:none;fill-rule:evenodd;stroke:#000000;stroke-width:3.02362204;stroke-linecap:butt;stroke-linejoin:miter;stroke-miterlimit:4;stroke-dasharray:none;stroke-opacity:1;opacity:1"
       d="m 782.23633,17.810547 c 0,0 -12.49676,5.055372 -18.3086,7.955078 -10.42631,5.202021 -30.10351,18.105469 -30.10351,18.105469 -15.71295,10.506829 -15.94864,1.329104 -24.3086,3.814453 -4.17923,1.242455 -6.38452,4.759306 -10.91601,6.339844 -4.39987,1.534631 -8.08635,-1.753978 -15.86719,1.279297 -1.45471,5.917481 7.57369,5.80536 11.29297,8.6875 l -1.24805,5.626953 c 9.94367,-1.366889 22.54017,5.472433 15.4375,24.308593 l -9.64257,30.537106 -1.25,9.82032 v 32.85742 c 0.32349,9.76171 -11.0015,12.37625 -17.67579,19.88476 -3.76467,4.23522 -5.07656,12.46298 -4.3789,18.41993 -7.08334,-5.26786 -13.27353,-1.60882 -19.64258,3.48046 l -24.55273,-15.89257 c -5.53572,-3.00596 -12.50029,-2.43964 -20.35743,-2.05274 l -67.85742,6.33985 -3.125,10.625 -22.78711,37.65234 c -3.16231,7.0056 -2.11443,12.41532 -5.53125,19.48633 -9.92038,19.31985 -26.42447,21.30397 -44.09179,27.96875 -20.91131,8.04295 -26.42994,20.25374 -38.32422,26.40039 -9.81698,5.07314 -16.45073,4.45492 -25.31641,7.20898 l 2.9043,10.22852 16.54101,-9.4707 26.13867,60.60937 3.94922,4.64648 7.23243,4.28711 -6.16211,38.125 -9.64258,2.5 c 0,0 0.18591,-1.49607 -0.66406,-3.00195 -0.63386,-1.12297 -2.48307,-1.42678 -2.89649,-2.79297 -0.54607,-1.80457 0.43768,-2.57775 -0.34375,-4.54492 -0.49413,-1.24392 -2.59409,-0.99891 -2.98047,-2.22461 -1.01349,-3.21505 0.68318,-6.07261 -0.74414,-7.42969 -1.38708,-1.31879 -7.58553,3.82654 -8.39062,6.10938 -0.85578,2.42657 0.37014,6.13164 2.08984,10.53906 1.70156,4.36097 4.51075,7.68045 5.96289,11.84375 2.28817,6.56016 -0.69819,4.63703 1.7168,10.33984 l 11.25,30.17969 -1.69531,0.89258 0.80273,3.75 52.23242,-16.78516 42.73242,133.90625 62.89258,-20.33593 10.53516,33.57226 -63.39258,20.17774 28.92773,90.71484 88.06446,-27.1543 4.03906,2.39844 11.11328,34.72461 -151.14453,47.85547 -0.25391,5.55664 c -0.68456,1.43539 -3.71088,0.87795 -5.63867,2.29297 -1.64646,1.20854 -2.15179,4.41056 -3.43164,5.4082 -2.7278,2.12633 -3.21091,3.54343 -4.45703,6.15625 -0.68947,1.44567 0.78793,2.92196 1.57227,4.85156 0.80713,1.98569 -1.93474,4.51369 0.21289,5.91211 l 70.20507,38.38672 33.83985,-24.75 c -1.41576,-6.04373 -2.46607,-10.70348 3.3789,-14.3164 l 20.89454,-15.35743 c 7.52283,-5.20475 23.50432,-4.47543 32.79492,-11.57422 7.61416,-5.81786 5.50557,-17.69612 17.91797,-27.17578 l 15.92773,-12.38672 -1.76758,-4.54687 24.62305,-19.31836 c 0,0 2.93992,7.11671 6.93164,3.125 2.91751,-2.91749 -1.45898,-8.05664 -1.45898,-8.05664 l 16.37109,-13.88281 c 3.58377,-3.24322 3.51579,-6.69175 2.81055,-9.91406 -1.12526,-5.1413 -5.43131,-9.70457 -10.89063,-11.92969 l -28.78906,-13.00586 c 0,0 5.05927,-2.66937 2.68164,-7.67188 -2.376,-4.9991 -8.86914,-2.05078 -8.86914,-2.05078 -30.40621,-13.78284 -64.91996,-25.42418 -77.82617,-72.95703 l 15.95312,7.16992 13.00586,-11.61718 c 13.8896,6.56598 23.17346,-5.62364 21.94141,-20.79493 0,0 15.2285,-9.64764 25.13867,-8.6289 4.03434,0.41472 -1.16716,8.26731 4.65039,10.33203 12.76001,4.52874 17.37034,16.40544 30.58398,16.85547 10.5584,0.35943 17.86243,-18.85561 29.80665,-17.99414 10.68897,0.77094 9.20742,14.21321 19.14648,15.79101 15.16176,2.40688 26.43454,0.43525 44.36328,-7.69531 0,0 -1.22151,-3.18424 -11.33008,-6.64844 -4.5985,-1.57591 -9.39348,-1.08204 -13.50586,-6.24805 -1.93296,-2.42819 2.01064,-2.0301 2.18946,-6.76562 0.15069,-3.99073 -3.92743,-2.81028 -3.30664,-7.33203 1.8805,-13.69746 2.69511,-30.70237 -5.33399,-46.51172 -2.59854,-5.11657 -13.68967,-6.18534 -13.35156,-11.01758 0.69452,-9.92598 -3.76702,-4.03242 -5.64258,-9.3789 -1.23145,-3.51039 5.23821,-10.89457 3.15234,-11.93946 -1.77473,-0.88902 -4.14695,3.59341 -7.4082,3.09961 -3.22756,-0.48869 -5.30301,-4.17031 -8.7832,-5.07422 -7.92282,-2.05776 -12.46016,5.07773 -17.88867,-4.96289 -1.98796,-3.67695 2.48449,-15.94687 0.59765,-22.24609 -3.48345,-11.62957 -5.76053,-29.21241 -7.34375,-42.74414 -0.51253,-4.38063 -2.87013,-5.13935 -2.66015,-9.32227 0.35259,-7.0244 1.42795,-10.59524 1.78515,-17.18164 0.43308,-7.98546 -2.43745,-9.49465 2.61719,-27.65429 1.27129,-4.56734 3.95691,-4.08164 5.24219,-6.18555 1.05641,-1.72929 -0.0132,-3.42829 1.28515,-4.16602 4.48475,-2.54831 8.49627,1.26564 10.15821,-3.28711 0.82766,-2.2673 1.12585,-6.08734 3.08789,-9.27148 3.90737,-6.34118 1.50693,2.1007 13.93554,-14.17969 4.16976,-5.46198 11.49118,0.15307 13.47071,-5.68555 1.8827,-5.55314 -0.16355,-6.44653 -2.36133,-9.2207 -1.94663,-2.45711 0.33177,-2.88609 2.17187,-4.33984 1.74432,-1.37809 1.45447,-4.73305 2.70313,-6.51563 1.48362,-2.11797 4.29353,-0.91118 3.76758,-5.52148 -1.10633,-9.69774 -20.88656,-26.98591 -19.9375,-37.28711 0.40236,-4.36725 9.50945,0.4071 11.42969,-3.39258 1.55357,-3.07415 -10.04397,-7.13945 -8.42579,-10.46289 1.52094,-3.12372 4.50693,-0.36361 7.12305,-3.42187 1.9199,-2.24438 -6.21983,-6.78896 -4.29687,-9.50977 3.43368,-4.85837 9.15357,-3.02804 13.97461,-6.30859 3.2945,-2.2418 4.85923,-3.56844 9.92382,-11.77344 2.3308,-3.01162 -0.5315,-2.4502 -2.26562,-3.63281 -1.85627,-1.26592 -2.71972,-4.20547 -3.97656,-5.40235 -5.07096,-4.82901 -0.37807,-8.35655 -3.58008,-9.39453 -3.49037,-1.13145 -4.71613,-0.20591 -6.32617,-2.58789 -1.14445,-1.69313 0.0889,-6.97384 -0.27344,-9.07617 -0.91474,-5.30816 -7.46091,-3.32848 -7.28125,-10.94336 0.16788,-7.11665 3.10622,-4.61468 5.57226,-9.75586 14.34957,-29.91576 36.05132,-17.9369 37.80274,-23.91797 1.2281,-4.19397 -1.50562,-5.85526 -0.92578,-10.15234 0.46872,-3.47366 1.95813,-7.07454 2.47656,-10.630862 0.66434,-4.557226 8.35338,11.363832 13.24219,4.722652 3.91919,-5.32399 -1.8258,-5.364976 -4.50586,-11.742184 -1.46475,-3.485374 3.63164,-5.271114 2.64453,-8.908203 -1.135,-4.182021 -4.95775,1.451014 -8.08399,-10.873047 l -17.08007,15.978516 c -1.51219,1.526438 -2.9953,0.05182 -4.85352,0.259766 -0.86892,0.09725 -0.95548,2.342577 -1.88476,3.074218 -0.86323,0.679639 -2.57443,-0.18058 -3.25391,0.625 -2.04453,2.423876 -0.86766,5.53218 -3.38672,6.699219 -4.1971,1.944445 -10.51239,-11.015203 -14.01953,-8.691406 -7.20039,4.770913 -5.62224,-0.814292 -8.07813,1.160156 -2.94819,2.370251 -3.1934,6.55345 -4.25781,4.544922 -1.13708,-2.145657 -0.25856,-3.75858 -0.34375,-7.552735 -0.0746,-3.324744 -5.18381,-1.987377 -4.83984,-6.125 0.35414,-4.260287 -3.54303,-6.728416 -2.58399,-11.84375 0.59566,-3.177138 4.67264,4.596951 9.35352,-2.96289 3.16623,-5.11361 -8.04936,1.724891 -7.52539,-4.933594 0.24843,-3.156862 -10.21617,-2.583673 -9.21875,-6.845703 0.77593,-3.315602 8.3223,2.759206 10.2793,-1.085937 1.56494,-3.074843 -2.24672,-4.239104 -1.10743,-8.228516 1.20326,-4.213368 6.57337,1.092902 10.44727,-7.355469 1.49558,-3.26163 -1.82012,-5.996785 -2.45899,-9.941406 -0.70821,-4.372838 3.67533,-10.079008 0.86133,-10.371094 z M 269.19727,281.16016 265.98242,286.69727 261.875,283.75 219.07617,307.72461 h -74.11914 v -8.39844 h -22.2793 l -7.76757,5.04883 c -13.62201,0.0975 -11.69628,3.63168 -16.937504,4.04297 -4.139792,0.32504 -3.546055,-1.13709 -5.542968,-1.70508 l -2.904297,2.9043 -28.41211,15.15234 -11.560547,4.1582 c -7.921096,2.48905 -14.150601,4.07276 -19.730468,7.81446 -5.830867,3.90999 -10.57725,8.77085 -10.681641,11.89062 -0.112252,3.35857 -2.756957,6.38976 -1.632813,9.54688 0.440391,1.23677 3.397915,1.97349 4.230469,3.24023 2.120315,3.22606 2.21424,6.31483 6.150391,9.85742 1.734312,1.56091 3.953203,0.22799 4.90039,2.66797 0.736593,1.89748 -0.884431,2.86286 -0.714843,8.8711 0.14022,4.97416 2.209938,5.73468 1.054687,8.23242 -1.628107,3.52002 -6.506581,-0.062 -5.925781,6.76953 0.334866,3.9374 2.66358,4.7547 4.376953,8.5332 1.648101,3.63455 -6.182369,7.24549 -4.169922,11.10352 0.961588,1.84346 1.751953,7.78515 1.751953,7.78515 l 4.351563,3.3125 0.06641,1.95508 4.529297,0.0762 6.191406,4.97852 1.414063,8.09766 h 25.892578 l -3.392578,29.10742 17.857422,4.01758 -3.113282,24.0039 -1.976562,2.06836 -1.697266,24.19531 68.19726,10.10157 16.41406,22.98242 -4.03906,3.72461 -7.89258,3.97656 -2.90429,3.78906 -2.08399,-1.45312 -4.22851,6.1875 -0.44336,10.85937 -11.11133,4.29297 3.09375,9.2168 2.77734,-0.125 -2.33593,-7.70313 9.97656,-4.16601 5.61914,10.10156 h 2.46094 l 4.73632,-5.11523 3.78711,3.2207 2.58789,-2.39844 16.28125,10.99024 -23.03515,37.58984 -20.17774,57.58984 15.625,25.44532 17.32032,35.71484 H 205.625 l 2.85742,-3.48242 1.25,-10.625 101.39453,-14.51758 -3.2832,-22.0957 4.79883,2.90429 2.77734,19.82422 23.48633,15.78321 19.44531,-1.13672 v 3.15625 l 2.20899,-0.125 0.0645,6.7539 2.27148,-0.125 -0.3789,-9.84961 25.06445,-0.50586 -0.44141,-17.61328 28.34766,-1.38867 -0.0625,-1.64258 3.59766,0.12696 -0.125,7.19726 h -3.47266 v 11.17383 l 16.98242,-0.125 14.82422,-18.41992 3.125,2.05469 25.26758,-30 -66.13477,-207.87891 1.13477,-13.01367 -15.17773,-32.05469 -2.32227,0.0898 -6.51758,-13.92968 -0.71484,-8.83789 -6.33985,-15.98243 1.78711,-1.875 -2.5,-7.85742 -2.85742,-1.25 -2.5,-11.16015 0.17774,-46.875 c -0.2208,-10.46548 -3.97716,-18.15356 -9.375,-25.71485 l -5.625,-7.85742 -5.17774,-15.71484 -21.07226,-0.71289 -0.80274,1.16015 c -8.06368,0.47346 -12.63636,-3.60344 -20.28906,-6.19922 -5.35372,-1.81598 -13.4396,-2.39239 -20.06836,-2.37304 z"
       transform="matrix(0.26458333,0,0,0.26458333,-130.2506,33.739582)"
       id="path2424"
       inkscape:connector-curvature="0" />
    <path
       style="fill:#b9b9b9;fill-opacity:1;stroke:#000000;stroke-width:0.40000001;stroke-linecap:butt;stroke-linejoin:miter;stroke-miterlimit:4;stroke-dasharray:none;stroke-opacity:1"
       d="m 60.169147,83.008023 2.572451,2.241722 c 0.847539,0.829202 1.143867,0.469442 1.290878,0.814422 0.213778,0.501621 0.228944,0.734486 0.594794,1.107427 l -0.274918,0.338997 0.736907,0.736904 0.520382,-0.6258 1.32958,-0.237827 0.07808,-0.003 c 0.0036,0.01028 0.01091,0.0307 0.0183,0.05097 0.590765,1.621553 1.701238,2.30025 2.544857,2.971115 0.795069,0.632264 1.426232,1.025596 1.943493,1.564507 l 0.0278,0.04528 -4.740115,5.521046 -1.844847,-1.398365 c -0.72735,0.899401 -1.384459,1.646663 -2.357304,2.382352 0.48959,0.659649 -1.232351,-1.505439 -1.232351,-1.505439 l 0.562497,-0.504594 c 0.657112,-0.617331 0.898984,-0.534365 1.353117,-3.107285 0.348938,-1.976925 0.477535,-2.833392 -0.716173,-3.832937 l -4.475136,-4.017917 z"
       id="path1276-9"
       inkscape:connector-curvature="0"
       sodipodi:nodetypes="cccccccccsccccccccsccc" />
  </g>
</svg>
